<svg width="40" height="40" viewBox="0 0 40 40" fill="none" xmlns="http://www.w3.org/2000/svg">
<path d="M20 15.8328C19.0581 15.8331 18.1375 16.0778 17.3546 16.5359C16.5716 16.994 15.9615 17.6449 15.6013 18.4064C15.2411 19.1679 15.147 20.0057 15.331 20.8139C15.515 21.6222 15.9687 22.3646 16.6348 22.9472C17.3009 23.5298 18.1495 23.9266 19.0733 24.0872C19.9971 24.2479 20.9546 24.1653 21.8247 23.8498C22.6949 23.5344 23.4386 23.0003 23.9618 22.315C24.485 21.6297 24.7643 20.8241 24.7643 20C24.7633 18.8948 24.261 17.8351 23.3677 17.0537C22.4744 16.2724 21.2631 15.8332 20 15.8328ZM31.1348 12.6297C30.8924 12.0921 30.5263 11.6038 30.0592 11.1951C29.5921 10.7864 29.0341 10.466 28.4196 10.2539C26.5446 9.60625 22.0804 9.75156 20 9.75156C17.9196 9.75156 13.4598 9.60078 11.5795 10.2539C10.965 10.466 10.407 10.7864 9.93992 11.1951C9.47285 11.6038 9.10674 12.0921 8.86429 12.6297C8.125 14.2703 8.29018 18.1805 8.29018 19.9992C8.29018 21.818 8.125 25.7234 8.86786 27.3695C9.11031 27.9072 9.47642 28.3955 9.94349 28.8041C10.4106 29.2128 10.9686 29.5332 11.583 29.7453C13.458 30.393 17.9223 30.2477 20.0036 30.2477C22.0848 30.2477 26.5429 30.3984 28.4232 29.7453C29.0376 29.5332 29.5957 29.2128 30.0628 28.8041C30.5298 28.3955 30.8959 27.9072 31.1384 27.3695C31.8839 25.7289 31.7125 21.8188 31.7125 20C31.7125 18.1812 31.8839 14.2766 31.1384 12.6305L31.1348 12.6297ZM20 26.4062C18.552 26.4062 17.1364 26.0305 15.9324 25.3266C14.7284 24.6227 13.79 23.6222 13.2359 22.4516C12.6817 21.281 12.5368 19.9929 12.8193 18.7502C13.1018 17.5075 13.799 16.366 14.823 15.4701C15.8469 14.5742 17.1514 13.964 18.5717 13.7168C19.9919 13.4697 21.464 13.5965 22.8018 14.0814C24.1396 14.5663 25.2831 15.3874 26.0875 16.4409C26.892 17.4944 27.3214 18.733 27.3214 20C27.3226 20.8416 27.134 21.6751 26.7665 22.4528C26.399 23.2305 25.8597 23.9371 25.1797 24.5322C24.4996 25.1273 23.692 25.5991 22.8032 25.9207C21.9144 26.2423 20.9618 26.4073 20 26.4062ZM27.6232 14.8203C27.2852 14.8205 26.9547 14.7329 26.6735 14.5687C26.3924 14.4045 26.1732 14.171 26.0437 13.8978C25.9143 13.6246 25.8803 13.3239 25.9461 13.0338C26.012 12.7436 26.1746 12.4771 26.4136 12.2679C26.6526 12.0587 26.9571 11.9162 27.2886 11.8585C27.6201 11.8007 27.9638 11.8303 28.2761 11.9434C28.5884 12.0566 28.8554 12.2482 29.0432 12.4942C29.231 12.7401 29.3313 13.0292 29.3313 13.325C29.3322 13.5214 29.2888 13.7161 29.2036 13.8978C29.1184 14.0795 28.993 14.2447 28.8346 14.3839C28.6763 14.5231 28.488 14.6336 28.2808 14.709C28.0735 14.7845 27.8513 14.8233 27.6268 14.8234L27.6232 14.8203ZM35.7143 2.5H4.28571C3.14907 2.5 2.05898 2.89509 1.25526 3.59835C0.451529 4.30161 0 5.25544 0 6.25L0 33.75C0 34.7446 0.451529 35.6984 1.25526 36.4016C2.05898 37.1049 3.14907 37.5 4.28571 37.5H35.7143C36.8509 37.5 37.941 37.1049 38.7447 36.4016C39.5485 35.6984 40 34.7446 40 33.75V6.25C40 5.25544 39.5485 4.30161 38.7447 3.59835C37.941 2.89509 36.8509 2.5 35.7143 2.5ZM34.1857 25.1562C34.0705 27.1586 33.5482 28.9328 31.8777 30.3906C30.2071 31.8484 28.1813 32.3148 25.8955 32.4102C23.5375 32.5266 16.4679 32.5266 14.1098 32.4102C11.8214 32.3094 9.80089 31.8516 8.12768 30.3906C6.45446 28.9297 5.92857 27.1547 5.81964 25.1562C5.68661 23.0922 5.68661 16.9055 5.81964 14.8438C5.93482 12.8414 6.45089 11.0672 8.12768 9.60938C9.80446 8.15156 11.8304 7.69063 14.1098 7.59531C16.4679 7.47891 23.5375 7.47891 25.8955 7.59531C28.1839 7.69609 30.2107 8.15391 31.8777 9.61484C33.5446 11.0758 34.0768 12.8508 34.1857 14.8531C34.3188 16.9094 34.3188 23.0906 34.1857 25.1562Z" fill="white"/>
</svg>
