<svg width="40" height="40" viewBox="0 0 40 40" fill="none" xmlns="http://www.w3.org/2000/svg">
<path d="M37.8473 9.19531C38.1042 8.21875 37.8473 7.5 36.6112 7.5H32.5209C31.4792 7.5 31.0001 8.11719 30.7431 8.80469C30.7431 8.80469 28.6598 14.5156 25.7154 18.2188C24.764 19.2891 24.3265 19.6328 23.8056 19.6328C23.5487 19.6328 23.1529 19.2891 23.1529 18.3125V9.19531C23.1529 8.02344 22.8612 7.5 22.0001 7.5H15.5695C14.9167 7.5 14.5279 8.04688 14.5279 8.55469C14.5279 9.66406 16.0001 9.92188 16.1529 13.0469V19.8281C16.1529 21.3125 15.9167 21.5859 15.3959 21.5859C14.007 21.5859 10.632 15.8516 8.63203 9.28906C8.22925 8.01563 7.83341 7.5 6.7848 7.5H2.69453C1.52786 7.5 1.29175 8.11719 1.29175 8.80469C1.29175 10.0234 2.68064 16.0781 7.75703 24.0781C11.139 29.5391 15.9029 32.5 20.2362 32.5C22.8404 32.5 23.1598 31.8438 23.1598 30.7109C23.1598 25.4922 22.9237 25 24.2292 25C24.8334 25 25.8751 25.3438 28.3056 27.9766C31.0834 31.1016 31.5417 32.5 33.0973 32.5H37.1876C38.3542 32.5 38.9445 31.8438 38.6042 30.5469C37.8265 27.8203 32.5695 22.2109 32.3334 21.8359C31.7292 20.9609 31.9029 20.5703 32.3334 19.7891C32.3404 19.7812 37.3334 11.875 37.8473 9.19531Z" fill="white"/>
</svg>
